<svg xmlns="http://www.w3.org/2000/svg" viewBox="0 0 140 48" fill="none">
  <!-- 4x4 grid, one cell highlighted -->
  <g transform="translate(4, 8)">
    <rect x="0" y="0" width="32" height="32" rx="2" fill="#18181b" stroke="#3f3f46" stroke-width="0.5"/>
    <rect x="2" y="2" width="6" height="6" rx="0.5" fill="#3f3f46"/>
    <rect x="10" y="2" width="6" height="6" rx="0.5" fill="#3f3f46"/>
    <rect x="18" y="2" width="6" height="6" rx="0.5" fill="#3f3f46"/>
    <rect x="24" y="2" width="6" height="6" rx="0.5" fill="#3f3f46"/>
    <rect x="2" y="10" width="6" height="6" rx="0.5" fill="#3f3f46"/>
    <rect x="10" y="10" width="6" height="6" rx="0.5" fill="#facc15"/>
    <rect x="18" y="10" width="6" height="6" rx="0.5" fill="#3f3f46"/>
    <rect x="24" y="10" width="6" height="6" rx="0.5" fill="#3f3f46"/>
    <rect x="2" y="18" width="6" height="6" rx="0.5" fill="#3f3f46"/>
    <rect x="10" y="18" width="6" height="6" rx="0.5" fill="#3f3f46"/>
    <rect x="18" y="18" width="6" height="6" rx="0.5" fill="#3f3f46"/>
    <rect x="24" y="18" width="6" height="6" rx="0.5" fill="#3f3f46"/>
    <rect x="2" y="24" width="6" height="6" rx="0.5" fill="#3f3f46"/>
    <rect x="10" y="24" width="6" height="6" rx="0.5" fill="#3f3f46"/>
    <rect x="18" y="24" width="6" height="6" rx="0.5" fill="#3f3f46"/>
    <rect x="24" y="24" width="6" height="6" rx="0.5" fill="#3f3f46"/>
  </g>
  <text x="48" y="22" font-family="system-ui, sans-serif" font-size="11" font-weight="500" fill="#9ca3af">Carbon</text>
  <text x="48" y="36" font-family="system-ui, sans-serif" font-size="11" font-weight="600" fill="#facc15">Hue</text>
</svg>
